<mxfile host="app.diagrams.net" modified="2020-12-02T01:40:37.100Z" agent="5.0 (Windows NT 10.0; WOW64) AppleWebKit/537.36 (KHTML, like Gecko) Chrome/78.0.3904.108 Safari/537.36" etag="03Jg82I83ADEfqf3_nAU" version="13.10.4" type="github">
  <diagram id="CD4ed7H8lgkhmsOlYAwD" name="Page-1">
    <mxGraphModel dx="868" dy="478" grid="0" gridSize="10" guides="1" tooltips="1" connect="1" arrows="1" fold="1" page="1" pageScale="1" pageWidth="827" pageHeight="1169" math="0" shadow="0">
      <root>
        <mxCell id="0" />
        <mxCell id="1" parent="0" />
        <mxCell id="kE1SDvW0iI3J9Alt9IHY-7" style="edgeStyle=orthogonalEdgeStyle;rounded=0;orthogonalLoop=1;jettySize=auto;html=1;exitX=0.5;exitY=1;exitDx=0;exitDy=0;entryX=0.5;entryY=0;entryDx=0;entryDy=0;" edge="1" parent="1" source="kE1SDvW0iI3J9Alt9IHY-1" target="kE1SDvW0iI3J9Alt9IHY-2">
          <mxGeometry relative="1" as="geometry" />
        </mxCell>
        <mxCell id="kE1SDvW0iI3J9Alt9IHY-1" value="开始" style="rounded=1;whiteSpace=wrap;html=1;" vertex="1" parent="1">
          <mxGeometry x="190" y="110" width="90" height="30" as="geometry" />
        </mxCell>
        <mxCell id="kE1SDvW0iI3J9Alt9IHY-8" style="edgeStyle=orthogonalEdgeStyle;rounded=0;orthogonalLoop=1;jettySize=auto;html=1;exitX=0.5;exitY=1;exitDx=0;exitDy=0;entryX=0.5;entryY=0;entryDx=0;entryDy=0;" edge="1" parent="1" source="kE1SDvW0iI3J9Alt9IHY-2" target="kE1SDvW0iI3J9Alt9IHY-3">
          <mxGeometry relative="1" as="geometry" />
        </mxCell>
        <mxCell id="kE1SDvW0iI3J9Alt9IHY-2" value="选择模型" style="rounded=0;whiteSpace=wrap;html=1;" vertex="1" parent="1">
          <mxGeometry x="180" y="160" width="110" height="30" as="geometry" />
        </mxCell>
        <mxCell id="kE1SDvW0iI3J9Alt9IHY-9" style="edgeStyle=orthogonalEdgeStyle;rounded=0;orthogonalLoop=1;jettySize=auto;html=1;exitX=0.5;exitY=1;exitDx=0;exitDy=0;entryX=0.5;entryY=0;entryDx=0;entryDy=0;" edge="1" parent="1" source="kE1SDvW0iI3J9Alt9IHY-3" target="kE1SDvW0iI3J9Alt9IHY-5">
          <mxGeometry relative="1" as="geometry" />
        </mxCell>
        <mxCell id="kE1SDvW0iI3J9Alt9IHY-18" style="edgeStyle=orthogonalEdgeStyle;rounded=0;orthogonalLoop=1;jettySize=auto;html=1;exitX=1;exitY=0.5;exitDx=0;exitDy=0;" edge="1" parent="1" source="kE1SDvW0iI3J9Alt9IHY-3" target="kE1SDvW0iI3J9Alt9IHY-4">
          <mxGeometry relative="1" as="geometry" />
        </mxCell>
        <mxCell id="kE1SDvW0iI3J9Alt9IHY-3" value="在线？" style="rhombus;whiteSpace=wrap;html=1;" vertex="1" parent="1">
          <mxGeometry x="195" y="210" width="80" height="80" as="geometry" />
        </mxCell>
        <mxCell id="kE1SDvW0iI3J9Alt9IHY-19" style="edgeStyle=orthogonalEdgeStyle;rounded=0;orthogonalLoop=1;jettySize=auto;html=1;exitX=0.5;exitY=1;exitDx=0;exitDy=0;entryX=1;entryY=0.5;entryDx=0;entryDy=0;" edge="1" parent="1" source="kE1SDvW0iI3J9Alt9IHY-4" target="kE1SDvW0iI3J9Alt9IHY-5">
          <mxGeometry relative="1" as="geometry" />
        </mxCell>
        <mxCell id="kE1SDvW0iI3J9Alt9IHY-4" value="选择文件" style="rounded=0;whiteSpace=wrap;html=1;" vertex="1" parent="1">
          <mxGeometry x="300" y="235" width="110" height="30" as="geometry" />
        </mxCell>
        <mxCell id="kE1SDvW0iI3J9Alt9IHY-10" style="edgeStyle=orthogonalEdgeStyle;rounded=0;orthogonalLoop=1;jettySize=auto;html=1;exitX=0.5;exitY=1;exitDx=0;exitDy=0;entryX=0.5;entryY=0;entryDx=0;entryDy=0;" edge="1" parent="1" source="kE1SDvW0iI3J9Alt9IHY-5" target="kE1SDvW0iI3J9Alt9IHY-6">
          <mxGeometry relative="1" as="geometry" />
        </mxCell>
        <mxCell id="kE1SDvW0iI3J9Alt9IHY-5" value="加载模型" style="rounded=0;whiteSpace=wrap;html=1;" vertex="1" parent="1">
          <mxGeometry x="177.5" y="320" width="115" height="30" as="geometry" />
        </mxCell>
        <mxCell id="kE1SDvW0iI3J9Alt9IHY-15" style="edgeStyle=orthogonalEdgeStyle;rounded=0;orthogonalLoop=1;jettySize=auto;html=1;exitX=0.5;exitY=1;exitDx=0;exitDy=0;entryX=0.5;entryY=0;entryDx=0;entryDy=0;" edge="1" parent="1" source="kE1SDvW0iI3J9Alt9IHY-6" target="kE1SDvW0iI3J9Alt9IHY-12">
          <mxGeometry relative="1" as="geometry" />
        </mxCell>
        <mxCell id="kE1SDvW0iI3J9Alt9IHY-6" value="加载配置" style="rounded=0;whiteSpace=wrap;html=1;" vertex="1" parent="1">
          <mxGeometry x="177.5" y="370" width="115" height="30" as="geometry" />
        </mxCell>
        <mxCell id="kE1SDvW0iI3J9Alt9IHY-11" value="结束" style="rounded=1;whiteSpace=wrap;html=1;" vertex="1" parent="1">
          <mxGeometry x="190" y="520" width="90" height="30" as="geometry" />
        </mxCell>
        <mxCell id="kE1SDvW0iI3J9Alt9IHY-16" style="edgeStyle=orthogonalEdgeStyle;rounded=0;orthogonalLoop=1;jettySize=auto;html=1;exitX=0.5;exitY=1;exitDx=0;exitDy=0;entryX=0.5;entryY=0;entryDx=0;entryDy=0;" edge="1" parent="1" source="kE1SDvW0iI3J9Alt9IHY-12" target="kE1SDvW0iI3J9Alt9IHY-14">
          <mxGeometry relative="1" as="geometry" />
        </mxCell>
        <mxCell id="kE1SDvW0iI3J9Alt9IHY-12" value="执行预测" style="rounded=0;whiteSpace=wrap;html=1;" vertex="1" parent="1">
          <mxGeometry x="177.5" y="420" width="115" height="30" as="geometry" />
        </mxCell>
        <mxCell id="kE1SDvW0iI3J9Alt9IHY-17" style="edgeStyle=orthogonalEdgeStyle;rounded=0;orthogonalLoop=1;jettySize=auto;html=1;exitX=0.5;exitY=1;exitDx=0;exitDy=0;entryX=0.5;entryY=0;entryDx=0;entryDy=0;" edge="1" parent="1" source="kE1SDvW0iI3J9Alt9IHY-14" target="kE1SDvW0iI3J9Alt9IHY-11">
          <mxGeometry relative="1" as="geometry" />
        </mxCell>
        <mxCell id="kE1SDvW0iI3J9Alt9IHY-14" value="返回结果" style="rounded=0;whiteSpace=wrap;html=1;" vertex="1" parent="1">
          <mxGeometry x="177.5" y="470" width="115" height="30" as="geometry" />
        </mxCell>
      </root>
    </mxGraphModel>
  </diagram>
</mxfile>
